<svg width="390" height="249" viewBox="0 0 390 249" fill="none" xmlns="http://www.w3.org/2000/svg">
<g opacity="0.2">
<g filter="url(#filter0_f_826_9381)">
<path d="M239.987 183.366C179.206 135.681 -33.7781 86.1559 -132.672 67.3539L-148.52 -0.253143H539L497.05 133.761L418.509 125.96H284.501C294.989 164.964 300.768 231.051 239.987 183.366Z" fill="url(#paint0_radial_826_9381)"/>
</g>
<g opacity="0.3" filter="url(#filter1_f_826_9381)">
<path d="M259.019 122.479C296.768 102.538 451.316 89.5902 523.871 85.6089V60.6824H-62.37V114.82C-27.8682 117.373 -4.01886 128.321 49.7344 128.321C103.488 128.321 196.393 111.011 196.393 128.321C208.498 119.32 221.27 142.421 259.019 122.479Z" fill="url(#paint1_linear_826_9381)"/>
</g>
</g>
<defs>
<filter id="filter0_f_826_9381" x="-197.42" y="-49.1534" width="785.321" height="298.054" filterUnits="userSpaceOnUse" color-interpolation-filters="sRGB">
<feFlood flood-opacity="0" result="BackgroundImageFix"/>
<feBlend mode="normal" in="SourceGraphic" in2="BackgroundImageFix" result="shape"/>
<feGaussianBlur stdDeviation="24.4501" result="effect1_foregroundBlur_826_9381"/>
</filter>
<filter id="filter1_f_826_9381" x="-104.479" y="18.5738" width="670.458" height="154.398" filterUnits="userSpaceOnUse" color-interpolation-filters="sRGB">
<feFlood flood-opacity="0" result="BackgroundImageFix"/>
<feBlend mode="normal" in="SourceGraphic" in2="BackgroundImageFix" result="shape"/>
<feGaussianBlur stdDeviation="21.0543" result="effect1_foregroundBlur_826_9381"/>
</filter>
<radialGradient id="paint0_radial_826_9381" cx="0" cy="0" r="1" gradientUnits="userSpaceOnUse" gradientTransform="translate(141.659 81.2743) rotate(1.95906) scale(208.984 794.055)">
<stop stop-color="#3251F4" stop-opacity="0.96"/>
<stop offset="1" stop-color="#405CF3"/>
</radialGradient>
<linearGradient id="paint1_linear_826_9381" x1="230.751" y1="130.863" x2="230.751" y2="60.6824" gradientUnits="userSpaceOnUse">
<stop stop-color="#FEFEFE"/>
<stop offset="1" stop-color="#FEFEFE"/>
</linearGradient>
</defs>
</svg>
