<svg width="458" height="40" viewBox="0 0 458 40" fill="none" xmlns="http://www.w3.org/2000/svg">
<g filter="url(#filter0_dd_485_9264)">
<rect x="2.5" y="1" width="453" height="36" rx="18" fill="#3351F2"/>
<rect x="2.5" y="1" width="453" height="36" rx="18" fill="url(#paint0_linear_485_9264)" fill-opacity="0.12"/>
<path d="M155.012 17.1293H153.461C153.401 16.7978 153.29 16.5062 153.127 16.2543C152.965 16.0024 152.766 15.7886 152.531 15.6129C152.296 15.4373 152.032 15.3047 151.74 15.2152C151.452 15.1257 151.145 15.081 150.821 15.081C150.234 15.081 149.709 15.2285 149.245 15.5234C148.784 15.8184 148.419 16.2509 148.151 16.821C147.886 17.3911 147.753 18.0871 147.753 18.9091C147.753 19.7377 147.886 20.437 148.151 21.0071C148.419 21.5772 148.786 22.008 149.25 22.2997C149.714 22.5914 150.236 22.7372 150.816 22.7372C151.137 22.7372 151.442 22.6941 151.73 22.608C152.022 22.5185 152.286 22.3875 152.521 22.2152C152.756 22.0429 152.955 21.8324 153.118 21.5838C153.283 21.3319 153.398 21.0436 153.461 20.7188L155.012 20.7237C154.929 21.2242 154.768 21.6849 154.529 22.1058C154.294 22.5234 153.991 22.8847 153.62 23.1896C153.252 23.4912 152.831 23.7249 152.357 23.8906C151.883 24.0563 151.366 24.1392 150.806 24.1392C149.924 24.1392 149.139 23.9304 148.449 23.5128C147.76 23.0919 147.216 22.4903 146.819 21.7081C146.424 20.9259 146.227 19.9929 146.227 18.9091C146.227 17.822 146.426 16.889 146.824 16.1101C147.221 15.3279 147.765 14.728 148.454 14.3104C149.144 13.8894 149.927 13.679 150.806 13.679C151.346 13.679 151.85 13.7569 152.317 13.9126C152.788 14.0651 153.21 14.2905 153.585 14.5888C153.959 14.8838 154.269 15.245 154.515 15.6726C154.76 16.0968 154.926 16.5824 155.012 17.1293ZM159.667 24.1541C158.951 24.1541 158.327 23.9901 157.793 23.6619C157.259 23.3338 156.845 22.8748 156.55 22.2848C156.255 21.6948 156.108 21.0054 156.108 20.2166C156.108 19.4245 156.255 18.7318 156.55 18.1385C156.845 17.5452 157.259 17.0845 157.793 16.7564C158.327 16.4283 158.951 16.2642 159.667 16.2642C160.383 16.2642 161.008 16.4283 161.542 16.7564C162.075 17.0845 162.489 17.5452 162.784 18.1385C163.079 18.7318 163.227 19.4245 163.227 20.2166C163.227 21.0054 163.079 21.6948 162.784 22.2848C162.489 22.8748 162.075 23.3338 161.542 23.6619C161.008 23.9901 160.383 24.1541 159.667 24.1541ZM159.672 22.9062C160.136 22.9062 160.521 22.7836 160.826 22.5384C161.131 22.2931 161.356 21.9666 161.502 21.5589C161.651 21.1513 161.726 20.7022 161.726 20.2116C161.726 19.7244 161.651 19.277 161.502 18.8693C161.356 18.4583 161.131 18.1286 160.826 17.88C160.521 17.6314 160.136 17.5071 159.672 17.5071C159.205 17.5071 158.817 17.6314 158.509 17.88C158.204 18.1286 157.977 18.4583 157.828 18.8693C157.682 19.277 157.609 19.7244 157.609 20.2116C157.609 20.7022 157.682 21.1513 157.828 21.5589C157.977 21.9666 158.204 22.2931 158.509 22.5384C158.817 22.7836 159.205 22.9062 159.672 22.9062ZM166.093 19.4659V24L164.606 24V16.3636H166.033V17.6065H166.128C166.303 17.2022 166.578 16.8774 166.953 16.6321C167.331 16.3868 167.806 16.2642 168.38 16.2642C168.9 16.2642 169.356 16.3736 169.747 16.5923C170.138 16.8078 170.441 17.1293 170.657 17.5568C170.872 17.9844 170.98 18.513 170.98 19.1428V24H169.493V19.3217C169.493 18.7682 169.349 18.3357 169.061 18.0241C168.772 17.7093 168.376 17.5518 167.873 17.5518C167.528 17.5518 167.221 17.6264 166.953 17.7756C166.688 17.9247 166.477 18.1435 166.321 18.4318C166.169 18.7169 166.093 19.0616 166.093 19.4659ZM176.258 16.3636V17.5568H172.087V16.3636H176.258ZM173.205 14.5341H174.692V21.7578C174.692 22.0462 174.735 22.2633 174.821 22.4091C174.907 22.5516 175.018 22.6494 175.154 22.7024C175.294 22.7521 175.444 22.777 175.607 22.777C175.726 22.777 175.83 22.7687 175.92 22.7521C176.009 22.7356 176.079 22.7223 176.129 22.7124L176.397 23.9403C176.311 23.9735 176.188 24.0066 176.029 24.0398C175.87 24.0762 175.671 24.0961 175.433 24.0994C175.042 24.1061 174.677 24.0365 174.339 23.8906C174.001 23.7448 173.727 23.5194 173.519 23.2145C173.31 22.9096 173.205 22.5268 173.205 22.0661V14.5341ZM177.622 24V16.3636H179.059V17.5767H179.139C179.278 17.1657 179.523 16.8426 179.875 16.6072C180.229 16.3686 180.63 16.2493 181.078 16.2493C181.17 16.2493 181.28 16.2526 181.406 16.2592C181.535 16.2659 181.636 16.2741 181.709 16.2841V17.706C181.649 17.6894 181.543 17.6712 181.391 17.6513C181.238 17.6281 181.086 17.6165 180.933 17.6165C180.582 17.6165 180.269 17.6911 179.994 17.8402C179.722 17.986 179.507 18.1899 179.348 18.4517C179.188 18.7102 179.109 19.0052 179.109 19.3366V24H177.622ZM182.715 24V16.3636L184.202 16.3636V24H182.715ZM183.466 15.1854C183.208 15.1854 182.986 15.0992 182.8 14.9268C182.618 14.7512 182.527 14.5424 182.527 14.3004C182.527 14.0552 182.618 13.8464 182.8 13.674C182.986 13.4983 183.208 13.4105 183.466 13.4105C183.725 13.4105 183.945 13.4983 184.127 13.674C184.313 13.8464 184.406 14.0552 184.406 14.3004C184.406 14.5424 184.313 14.7512 184.127 14.9268C183.945 15.0992 183.725 15.1854 183.466 15.1854ZM186.041 24V13.8182H187.528V17.6016H187.617C187.703 17.4425 187.828 17.2585 187.99 17.0497C188.152 16.8409 188.378 16.6586 188.666 16.5028C188.954 16.3437 189.336 16.2642 189.81 16.2642C190.426 16.2642 190.976 16.42 191.46 16.7315C191.944 17.0431 192.324 17.4922 192.599 18.0788C192.877 18.6655 193.016 19.3714 193.016 20.1967C193.016 21.022 192.879 21.7296 192.604 22.3196C192.328 22.9062 191.951 23.3587 191.47 23.6768C190.989 23.9917 190.441 24.1491 189.824 24.1491C189.36 24.1491 188.981 24.0713 188.686 23.9155C188.394 23.7597 188.166 23.5774 188 23.3686C187.834 23.1598 187.707 22.9742 187.617 22.8118H187.493V24H186.041ZM187.498 20.1818C187.498 20.7187 187.576 21.1894 187.731 21.5937C187.887 21.9981 188.113 22.3146 188.408 22.5433C188.703 22.7687 189.064 22.8814 189.491 22.8814C189.935 22.8814 190.307 22.7637 190.605 22.5284C190.903 22.2898 191.129 21.9666 191.281 21.5589C191.437 21.1513 191.515 20.6922 191.515 20.1818C191.515 19.678 191.439 19.2256 191.286 18.8246C191.137 18.4235 190.912 18.107 190.61 17.875C190.312 17.643 189.939 17.527 189.491 17.527C189.06 17.527 188.696 17.638 188.398 17.8601C188.103 18.0821 187.879 18.392 187.726 18.7898C187.574 19.1875 187.498 19.6515 187.498 20.1818ZM199.243 20.8331V16.3636H200.734V24H199.273V22.6776H199.193C199.017 23.0852 198.736 23.425 198.348 23.6967C197.963 23.9652 197.484 24.0994 196.911 24.0994C196.421 24.0994 195.986 23.9917 195.609 23.7763C195.234 23.5575 194.939 23.2344 194.724 22.8068C194.511 22.3793 194.405 21.8506 194.405 21.2209V16.3636H195.892V21.0419C195.892 21.5623 196.036 21.9766 196.324 22.2848C196.613 22.593 196.987 22.7472 197.448 22.7472C197.726 22.7472 198.003 22.6776 198.278 22.5384C198.557 22.3991 198.787 22.1887 198.969 21.907C199.155 21.6252 199.246 21.2673 199.243 20.8331ZM206.016 16.3636V17.5568H201.845V16.3636H206.016ZM202.964 14.5341H204.45V21.7578C204.45 22.0462 204.493 22.2633 204.579 22.4091C204.666 22.5516 204.777 22.6494 204.913 22.7024C205.052 22.7521 205.203 22.777 205.365 22.777C205.484 22.777 205.589 22.7687 205.678 22.7521C205.768 22.7356 205.837 22.7223 205.887 22.7124L206.155 23.9403C206.069 23.9735 205.947 24.0066 205.788 24.0398C205.628 24.0762 205.43 24.0961 205.191 24.0994C204.8 24.1061 204.435 24.0365 204.097 23.8906C203.759 23.7448 203.486 23.5194 203.277 23.2145C203.068 22.9096 202.964 22.5268 202.964 22.0661V14.5341ZM210.59 24.1541C209.837 24.1541 209.189 23.9934 208.646 23.6719C208.106 23.3471 207.688 22.8913 207.393 22.3047C207.101 21.7147 206.956 21.0237 206.956 20.2315C206.956 19.4493 207.101 18.7599 207.393 18.1634C207.688 17.5668 208.099 17.1011 208.626 16.7663C209.156 16.4316 209.776 16.2642 210.485 16.2642C210.916 16.2642 211.334 16.3355 211.738 16.478C212.143 16.6205 212.505 16.8442 212.827 17.1491C213.148 17.4541 213.402 17.8501 213.588 18.3374C213.773 18.8213 213.866 19.4096 213.866 20.1023V20.6293H207.796V19.5156H212.409C212.409 19.1245 212.33 18.7782 212.171 18.4766C212.012 18.1716 211.788 17.9313 211.5 17.7557C211.215 17.58 210.88 17.4922 210.495 17.4922C210.078 17.4922 209.713 17.5949 209.402 17.8004C209.093 18.0026 208.855 18.2678 208.686 18.5959C208.52 18.9207 208.437 19.2737 208.437 19.6548V20.5249C208.437 21.0353 208.527 21.4695 208.706 21.8274C208.888 22.1854 209.141 22.4588 209.466 22.6477C209.791 22.8333 210.17 22.9261 210.605 22.9261C210.886 22.9261 211.143 22.8864 211.375 22.8068C211.607 22.724 211.808 22.6013 211.977 22.4389C212.146 22.2765 212.275 22.076 212.365 21.8374L213.772 22.0909C213.659 22.5052 213.457 22.8681 213.165 23.1797C212.877 23.4879 212.514 23.7282 212.076 23.9006C211.642 24.0696 211.147 24.1541 210.59 24.1541ZM222.225 16.3636V17.5568H218.054V16.3636H222.225ZM219.172 14.5341H220.659V21.7578C220.659 22.0462 220.702 22.2633 220.788 22.4091C220.874 22.5516 220.985 22.6494 221.121 22.7024C221.261 22.7521 221.411 22.777 221.574 22.777C221.693 22.777 221.797 22.7687 221.887 22.7521C221.976 22.7356 222.046 22.7223 222.096 22.7124L222.364 23.9403C222.278 23.9735 222.155 24.0066 221.996 24.0398C221.837 24.0762 221.638 24.0961 221.4 24.0994C221.009 24.1061 220.644 24.0365 220.306 23.8906C219.968 23.7448 219.695 23.5194 219.486 23.2145C219.277 22.9096 219.172 22.5268 219.172 22.0661V14.5341ZM226.724 24.1541C226.008 24.1541 225.383 23.9901 224.85 23.6619C224.316 23.3338 223.902 22.8748 223.607 22.2848C223.312 21.6948 223.164 21.0054 223.164 20.2166C223.164 19.4245 223.312 18.7318 223.607 18.1385C223.902 17.5452 224.316 17.0845 224.85 16.7564C225.383 16.4283 226.008 16.2642 226.724 16.2642C227.44 16.2642 228.065 16.4283 228.598 16.7564C229.132 17.0845 229.546 17.5452 229.841 18.1385C230.136 18.7318 230.284 19.4245 230.284 20.2166C230.284 21.0054 230.136 21.6948 229.841 22.2848C229.546 22.8748 229.132 23.3338 228.598 23.6619C228.065 23.9901 227.44 24.1541 226.724 24.1541ZM226.729 22.9062C227.193 22.9062 227.577 22.7836 227.882 22.5384C228.187 22.2931 228.413 21.9666 228.559 21.5589C228.708 21.1513 228.782 20.7022 228.782 20.2116C228.782 19.7244 228.708 19.277 228.559 18.8693C228.413 18.4583 228.187 18.1286 227.882 17.88C227.577 17.6314 227.193 17.5071 226.729 17.5071C226.262 17.5071 225.874 17.6314 225.566 17.88C225.261 18.1286 225.034 18.4583 224.885 18.8693C224.739 19.277 224.666 19.7244 224.666 20.2116C224.666 20.7022 224.739 21.1513 224.885 21.5589C225.034 21.9666 225.261 22.2931 225.566 22.5384C225.874 22.7836 226.262 22.9062 226.729 22.9062ZM238.653 16.3636V17.5568L234.481 17.5568V16.3636L238.653 16.3636ZM235.6 14.5341H237.087V21.7578C237.087 22.0462 237.13 22.2633 237.216 22.4091C237.302 22.5516 237.413 22.6494 237.549 22.7024C237.688 22.7521 237.839 22.777 238.001 22.777C238.121 22.777 238.225 22.7687 238.315 22.7521C238.404 22.7356 238.474 22.7223 238.523 22.7124L238.792 23.9403C238.706 23.9735 238.583 24.0066 238.424 24.0398C238.265 24.0762 238.066 24.0961 237.827 24.0994C237.436 24.1061 237.072 24.0365 236.734 23.8906C236.396 23.7448 236.122 23.5194 235.913 23.2145C235.704 22.9096 235.6 22.5268 235.6 22.0661V14.5341ZM241.668 19.4659V24H240.181V13.8182H241.648V17.6065H241.742C241.921 17.1955 242.195 16.8691 242.562 16.6271C242.93 16.3852 243.411 16.2642 244.004 16.2642C244.528 16.2642 244.985 16.3719 245.376 16.5874C245.771 16.8028 246.076 17.1243 246.291 17.5518C246.51 17.9761 246.619 18.5064 246.619 19.1428V24H245.133V19.3217C245.133 18.7616 244.989 18.3274 244.7 18.0192C244.412 17.7076 244.011 17.5518 243.497 17.5518C243.146 17.5518 242.831 17.6264 242.553 17.7756C242.277 17.9247 242.06 18.1435 241.901 18.4318C241.745 18.7169 241.668 19.0616 241.668 19.4659ZM251.614 24.1541C250.862 24.1541 250.214 23.9934 249.67 23.6719C249.13 23.3471 248.712 22.8913 248.417 22.3047C248.126 21.7147 247.98 21.0237 247.98 20.2315C247.98 19.4493 248.126 18.7599 248.417 18.1634C248.712 17.5668 249.123 17.1011 249.65 16.7663C250.181 16.4316 250.8 16.2642 251.51 16.2642C251.941 16.2642 252.358 16.3355 252.763 16.478C253.167 16.6205 253.53 16.8442 253.851 17.1491C254.173 17.4541 254.426 17.8501 254.612 18.3374C254.798 18.8213 254.89 19.4096 254.89 20.1023V20.6293H248.82V19.5156H253.434C253.434 19.1245 253.354 18.7782 253.195 18.4766C253.036 18.1716 252.812 17.9313 252.524 17.7557C252.239 17.58 251.904 17.4922 251.52 17.4922C251.102 17.4922 250.737 17.5949 250.426 17.8004C250.118 18.0026 249.879 18.2678 249.71 18.5959C249.544 18.9207 249.461 19.2737 249.461 19.6548V20.5249C249.461 21.0353 249.551 21.4695 249.73 21.8274C249.912 22.1854 250.166 22.4588 250.491 22.6477C250.815 22.8333 251.195 22.9261 251.629 22.9261C251.911 22.9261 252.168 22.8864 252.4 22.8068C252.632 22.724 252.832 22.6013 253.001 22.4389C253.17 22.2765 253.299 22.076 253.389 21.8374L254.796 22.0909C254.683 22.5052 254.481 22.8681 254.189 23.1797C253.901 23.4879 253.538 23.7282 253.101 23.9006C252.666 24.0696 252.171 24.1541 251.614 24.1541ZM259.685 26.8636V16.3636H261.137V17.6016H261.261C261.347 17.4425 261.471 17.2585 261.634 17.0497C261.796 16.8409 262.021 16.6586 262.31 16.5028C262.598 16.3437 262.979 16.2642 263.453 16.2642C264.07 16.2642 264.62 16.42 265.104 16.7315C265.588 17.0431 265.967 17.4922 266.242 18.0788C266.521 18.6655 266.66 19.3714 266.66 20.1967C266.66 21.022 266.522 21.7296 266.247 22.3196C265.972 22.9062 265.594 23.3587 265.114 23.6768C264.633 23.9917 264.085 24.1491 263.468 24.1491C263.004 24.1491 262.625 24.0713 262.33 23.9155C262.038 23.7597 261.809 23.5774 261.644 23.3686C261.478 23.1598 261.35 22.9742 261.261 22.8118H261.171V26.8636H259.685ZM261.141 20.1818C261.141 20.7187 261.219 21.1894 261.375 21.5937C261.531 21.9981 261.756 22.3146 262.051 22.5433C262.346 22.7687 262.708 22.8814 263.135 22.8814C263.579 22.8814 263.95 22.7637 264.249 22.5284C264.547 22.2898 264.772 21.9666 264.925 21.5589C265.081 21.1513 265.159 20.6922 265.159 20.1818C265.159 19.678 265.082 19.2256 264.93 18.8246C264.781 18.4235 264.555 18.107 264.254 17.875C263.955 17.643 263.583 17.527 263.135 17.527C262.704 17.527 262.34 17.638 262.041 17.8601C261.746 18.0821 261.523 18.392 261.37 18.7898C261.218 19.1875 261.141 19.6515 261.141 20.1818ZM271.262 24.1541C270.546 24.1541 269.921 23.9901 269.388 23.6619C268.854 23.3338 268.44 22.8748 268.145 22.2848C267.85 21.6948 267.702 21.0054 267.702 20.2166C267.702 19.4245 267.85 18.7318 268.145 18.1385C268.44 17.5452 268.854 17.0845 269.388 16.7564C269.921 16.4283 270.546 16.2642 271.262 16.2642C271.978 16.2642 272.603 16.4283 273.136 16.7564C273.67 17.0845 274.084 17.5452 274.379 18.1385C274.674 18.7318 274.822 19.4245 274.822 20.2166C274.822 21.0054 274.674 21.6948 274.379 22.2848C274.084 22.8748 273.67 23.3338 273.136 23.6619C272.603 23.9901 271.978 24.1541 271.262 24.1541ZM271.267 22.9062C271.731 22.9062 272.116 22.7836 272.42 22.5384C272.725 22.2931 272.951 21.9666 273.097 21.5589C273.246 21.1513 273.32 20.7022 273.32 20.2116C273.32 19.7244 273.246 19.277 273.097 18.8693C272.951 18.4583 272.725 18.1286 272.42 17.88C272.116 17.6314 271.731 17.5071 271.267 17.5071C270.8 17.5071 270.412 17.6314 270.104 17.88C269.799 18.1286 269.572 18.4583 269.423 18.8693C269.277 19.277 269.204 19.7244 269.204 20.2116C269.204 20.7022 269.277 21.1513 269.423 21.5589C269.572 21.9666 269.799 22.2931 270.104 22.5384C270.412 22.7836 270.8 22.9062 271.267 22.9062ZM279.418 24.1541C278.702 24.1541 278.077 23.9901 277.543 23.6619C277.01 23.3338 276.595 22.8748 276.3 22.2848C276.005 21.6948 275.858 21.0054 275.858 20.2166C275.858 19.4245 276.005 18.7318 276.3 18.1385C276.595 17.5452 277.01 17.0845 277.543 16.7564C278.077 16.4283 278.702 16.2642 279.418 16.2642C280.133 16.2642 280.758 16.4283 281.292 16.7564C281.825 17.0845 282.24 17.5452 282.535 18.1385C282.83 18.7318 282.977 19.4245 282.977 20.2166C282.977 21.0054 282.83 21.6948 282.535 22.2848C282.24 22.8748 281.825 23.3338 281.292 23.6619C280.758 23.9901 280.133 24.1541 279.418 24.1541ZM279.423 22.9062C279.887 22.9062 280.271 22.7836 280.576 22.5384C280.881 22.2931 281.106 21.9666 281.252 21.5589C281.401 21.1513 281.476 20.7022 281.476 20.2116C281.476 19.7244 281.401 19.277 281.252 18.8693C281.106 18.4583 280.881 18.1286 280.576 17.88C280.271 17.6314 279.887 17.5071 279.423 17.5071C278.955 17.5071 278.567 17.6314 278.259 17.88C277.954 18.1286 277.727 18.4583 277.578 18.8693C277.432 19.277 277.359 19.7244 277.359 20.2116C277.359 20.7022 277.432 21.1513 277.578 21.5589C277.727 21.9666 277.954 22.2931 278.259 22.5384C278.567 22.7836 278.955 22.9062 279.423 22.9062ZM285.843 13.8182V24H284.357V13.8182H285.843Z" fill="white"/>
<path d="M301.2 22.6L304.8 19L301.2 15.4" stroke="white" stroke-width="1.5" stroke-linecap="round" stroke-linejoin="round"/>
<rect x="3" y="1.5" width="452" height="35" rx="17.5" stroke="url(#paint1_linear_485_9264)" stroke-opacity="0.12"/>
</g>
<defs>
<filter id="filter0_dd_485_9264" x="0.5" y="0" width="457" height="40" filterUnits="userSpaceOnUse" color-interpolation-filters="sRGB">
<feFlood flood-opacity="0" result="BackgroundImageFix"/>
<feColorMatrix in="SourceAlpha" type="matrix" values="0 0 0 0 0 0 0 0 0 0 0 0 0 0 0 0 0 0 127 0" result="hardAlpha"/>
<feMorphology radius="1" operator="dilate" in="SourceAlpha" result="effect1_dropShadow_485_9264"/>
<feOffset/>
<feComposite in2="hardAlpha" operator="out"/>
<feColorMatrix type="matrix" values="0 0 0 0 0.212049 0 0 0 0 0.306748 0 0 0 0 0.820833 0 0 0 1 0"/>
<feBlend mode="normal" in2="BackgroundImageFix" result="effect1_dropShadow_485_9264"/>
<feColorMatrix in="SourceAlpha" type="matrix" values="0 0 0 0 0 0 0 0 0 0 0 0 0 0 0 0 0 0 127 0" result="hardAlpha"/>
<feOffset dy="1"/>
<feGaussianBlur stdDeviation="1"/>
<feComposite in2="hardAlpha" operator="out"/>
<feColorMatrix type="matrix" values="0 0 0 0 0.123941 0 0 0 0 0.161964 0 0 0 0 0.504167 0 0 0 0.58 0"/>
<feBlend mode="normal" in2="effect1_dropShadow_485_9264" result="effect2_dropShadow_485_9264"/>
<feBlend mode="normal" in="SourceGraphic" in2="effect2_dropShadow_485_9264" result="shape"/>
</filter>
<linearGradient id="paint0_linear_485_9264" x1="229" y1="1" x2="229" y2="37" gradientUnits="userSpaceOnUse">
<stop stop-color="white"/>
<stop offset="1" stop-color="white" stop-opacity="0"/>
</linearGradient>
<linearGradient id="paint1_linear_485_9264" x1="229" y1="1" x2="229" y2="37" gradientUnits="userSpaceOnUse">
<stop stop-color="white"/>
<stop offset="1" stop-color="white" stop-opacity="0"/>
</linearGradient>
</defs>
</svg>
