<svg width="148" height="18" viewBox="0 0 148 18" fill="none" xmlns="http://www.w3.org/2000/svg">
<rect width="148" height="18" fill="#1E1E1E"/>
<g clip-path="url(#clip0_485_8435)">
<rect width="1440" height="2025" transform="translate(-138 -18)" fill="white"/>
<g opacity="0.2">
<g filter="url(#filter0_f_485_8435)">
<path d="M675.735 335.693C548.563 235.923 102.943 132.303 -103.97 92.964L-137.128 -48.4884H1301.35L1213.58 231.906L1049.25 215.584H768.87C790.813 297.191 802.906 435.463 675.735 335.693Z" fill="url(#paint0_radial_485_8435)"/>
</g>
<g opacity="0.3" filter="url(#filter1_f_485_8435)">
<path d="M715.555 208.302C794.536 166.579 1117.89 139.488 1269.7 131.158V79.0053H43.1213V192.275C115.309 197.617 165.208 220.525 277.674 220.525C390.141 220.525 584.524 184.307 584.524 220.525C609.85 201.692 636.573 250.024 715.555 208.302Z" fill="url(#paint1_linear_485_8435)"/>
</g>
</g>
<g filter="url(#filter2_b_485_8435)">
<rect x="-138" y="-18" width="1440" height="54" fill="white" fill-opacity="0.8"/>
<path d="M32.2357 6.6529C32.2433 8.21961 31.4155 9.49655 30.0106 10.0837C28.5433 10.6965 27.0396 10.4127 25.9111 9.3109C24.9253 8.34793 24.3572 8.40981 23.6342 9.61428C22.6895 11.1901 21.7797 12.7854 20.8486 14.3703C20.3185 15.2744 19.6988 16.1045 18.8224 16.7173C17.8913 17.3679 16.8524 17.5686 15.7709 17.2788C14.0424 16.8124 13.2511 14.8367 14.1062 13.1749C14.5148 12.3809 15.0084 11.6308 15.4413 10.8489C15.8879 10.0399 15.821 9.36221 15.2864 8.94865C14.6773 8.47622 13.8176 8.57583 13.1858 9.22788C12.9701 9.44975 12.806 9.72596 12.6466 9.99311C11.6714 11.6353 10.7434 13.3062 9.72421 14.9212C8.90249 16.2223 7.84685 17.2864 6.15936 17.3769C3.70179 17.5082 2.25277 15.291 3.37827 13.11C3.80964 12.2738 4.31087 11.4723 4.78173 10.6542C4.83033 10.5712 4.89412 10.4942 4.93362 10.4067C5.15537 9.90861 5.55789 9.36975 5.10981 8.86714C4.68148 8.38716 4.1681 8.7962 3.69572 8.94865C2.713 9.26863 1.75305 9.23089 0.94804 8.5396C0.139989 7.84529 -0.154675 6.95478 0.0761971 5.87257C0.531865 3.73078 3.00462 2.42669 5.0126 3.31872C5.88596 3.70663 6.42214 4.38434 6.6682 5.30958C7.30765 7.72305 9.48878 8.33132 11.3373 6.63329C11.8431 6.16841 12.2167 5.6039 12.6268 5.06506C13.4713 3.95719 14.5482 3.24477 15.9653 3.08025C17.5344 2.89761 18.6735 3.65682 19.0715 5.17373C19.0836 5.22052 19.0867 5.26881 19.0973 5.3156C19.6912 8.12 22.4161 7.96153 23.7892 6.63027C24.2965 6.13822 24.7005 5.56616 25.1136 4.99713C26.0918 3.64474 27.3844 2.89911 29.1068 3.10589C31.0267 3.33834 32.2266 4.7179 32.2372 6.65441L32.2357 6.6529Z" fill="#3D59F3"/>
<mask id="path-6-outside-1_485_8435" maskUnits="userSpaceOnUse" x="36.8585" y="-0.447021" width="16" height="18" fill="black">
<rect fill="white" x="36.8585" y="-0.447021" width="16" height="18"/>
<path d="M52.2977 5.67783C52.3711 6.01132 52.1043 6.31293 51.7608 6.31293H49.8721C49.5962 6.31293 49.3648 6.11414 49.2877 5.85088C49.1978 5.54412 49.075 5.26287 48.9191 5.00713C48.688 4.6226 48.4005 4.29681 48.0565 4.02978C47.7125 3.76274 47.3202 3.56247 46.8795 3.42895C46.4442 3.29009 45.9739 3.22066 45.4687 3.22066C44.5712 3.22066 43.7758 3.44497 43.0825 3.89359C42.3892 4.33687 41.8464 4.98844 41.454 5.84829C41.0617 6.70281 40.8655 7.74691 40.8655 8.98062C40.8655 10.2357 41.0617 11.2931 41.454 12.153C41.8517 13.0075 42.3945 13.6537 43.0825 14.0917C43.7758 14.5243 44.5685 14.7406 45.4607 14.7406C45.9551 14.7406 46.4173 14.6765 46.8473 14.5483C47.2826 14.4148 47.6722 14.2199 48.0162 13.9635C48.3655 13.7071 48.6584 13.392 48.8949 13.0182C49.0574 12.767 49.186 12.4917 49.2805 12.1922C49.3626 11.9325 49.5937 11.7375 49.8677 11.7389L51.7583 11.749C52.1027 11.7508 52.368 12.0554 52.2861 12.3878C52.1517 12.9329 51.9484 13.4528 51.6762 13.9475C51.3054 14.6311 50.819 15.2346 50.217 15.758C49.6151 16.276 48.911 16.6819 48.1049 16.9757C47.2987 17.2641 46.4039 17.4083 45.4204 17.4083C43.9693 17.4083 42.674 17.0745 41.5346 16.4069C40.3953 15.7393 39.4977 14.7753 38.842 13.5149C38.1864 12.2545 37.8585 10.743 37.8585 8.98062C37.8585 7.21284 38.189 5.70142 38.8501 4.44636C39.5112 3.18595 40.4114 2.22195 41.5508 1.55436C42.6901 0.886773 43.98 0.552979 45.4204 0.552979C46.3394 0.552979 47.1939 0.681155 47.984 0.937509C48.774 1.19386 49.478 1.57038 50.0961 2.06707C50.7142 2.55841 51.2221 3.16191 51.6198 3.87757C51.9269 4.41875 52.1529 5.01884 52.2977 5.67783Z"/>
</mask>
<path d="M52.2977 5.67783C52.3711 6.01132 52.1043 6.31293 51.7608 6.31293H49.8721C49.5962 6.31293 49.3648 6.11414 49.2877 5.85088C49.1978 5.54412 49.075 5.26287 48.9191 5.00713C48.688 4.6226 48.4005 4.29681 48.0565 4.02978C47.7125 3.76274 47.3202 3.56247 46.8795 3.42895C46.4442 3.29009 45.9739 3.22066 45.4687 3.22066C44.5712 3.22066 43.7758 3.44497 43.0825 3.89359C42.3892 4.33687 41.8464 4.98844 41.454 5.84829C41.0617 6.70281 40.8655 7.74691 40.8655 8.98062C40.8655 10.2357 41.0617 11.2931 41.454 12.153C41.8517 13.0075 42.3945 13.6537 43.0825 14.0917C43.7758 14.5243 44.5685 14.7406 45.4607 14.7406C45.9551 14.7406 46.4173 14.6765 46.8473 14.5483C47.2826 14.4148 47.6722 14.2199 48.0162 13.9635C48.3655 13.7071 48.6584 13.392 48.8949 13.0182C49.0574 12.767 49.186 12.4917 49.2805 12.1922C49.3626 11.9325 49.5937 11.7375 49.8677 11.7389L51.7583 11.749C52.1027 11.7508 52.368 12.0554 52.2861 12.3878C52.1517 12.9329 51.9484 13.4528 51.6762 13.9475C51.3054 14.6311 50.819 15.2346 50.217 15.758C49.6151 16.276 48.911 16.6819 48.1049 16.9757C47.2987 17.2641 46.4039 17.4083 45.4204 17.4083C43.9693 17.4083 42.674 17.0745 41.5346 16.4069C40.3953 15.7393 39.4977 14.7753 38.842 13.5149C38.1864 12.2545 37.8585 10.743 37.8585 8.98062C37.8585 7.21284 38.189 5.70142 38.8501 4.44636C39.5112 3.18595 40.4114 2.22195 41.5508 1.55436C42.6901 0.886773 43.98 0.552979 45.4204 0.552979C46.3394 0.552979 47.1939 0.681155 47.984 0.937509C48.774 1.19386 49.478 1.57038 50.0961 2.06707C50.7142 2.55841 51.2221 3.16191 51.6198 3.87757C51.9269 4.41875 52.1529 5.01884 52.2977 5.67783Z" fill="#120D0D"/>
<path d="M52.2977 5.67783C52.3711 6.01132 52.1043 6.31293 51.7608 6.31293H49.8721C49.5962 6.31293 49.3648 6.11414 49.2877 5.85088C49.1978 5.54412 49.075 5.26287 48.9191 5.00713C48.688 4.6226 48.4005 4.29681 48.0565 4.02978C47.7125 3.76274 47.3202 3.56247 46.8795 3.42895C46.4442 3.29009 45.9739 3.22066 45.4687 3.22066C44.5712 3.22066 43.7758 3.44497 43.0825 3.89359C42.3892 4.33687 41.8464 4.98844 41.454 5.84829C41.0617 6.70281 40.8655 7.74691 40.8655 8.98062C40.8655 10.2357 41.0617 11.2931 41.454 12.153C41.8517 13.0075 42.3945 13.6537 43.0825 14.0917C43.7758 14.5243 44.5685 14.7406 45.4607 14.7406C45.9551 14.7406 46.4173 14.6765 46.8473 14.5483C47.2826 14.4148 47.6722 14.2199 48.0162 13.9635C48.3655 13.7071 48.6584 13.392 48.8949 13.0182C49.0574 12.767 49.186 12.4917 49.2805 12.1922C49.3626 11.9325 49.5937 11.7375 49.8677 11.7389L51.7583 11.749C52.1027 11.7508 52.368 12.0554 52.2861 12.3878C52.1517 12.9329 51.9484 13.4528 51.6762 13.9475C51.3054 14.6311 50.819 15.2346 50.217 15.758C49.6151 16.276 48.911 16.6819 48.1049 16.9757C47.2987 17.2641 46.4039 17.4083 45.4204 17.4083C43.9693 17.4083 42.674 17.0745 41.5346 16.4069C40.3953 15.7393 39.4977 14.7753 38.842 13.5149C38.1864 12.2545 37.8585 10.743 37.8585 8.98062C37.8585 7.21284 38.189 5.70142 38.8501 4.44636C39.5112 3.18595 40.4114 2.22195 41.5508 1.55436C42.6901 0.886773 43.98 0.552979 45.4204 0.552979C46.3394 0.552979 47.1939 0.681155 47.984 0.937509C48.774 1.19386 49.478 1.57038 50.0961 2.06707C50.7142 2.55841 51.2221 3.16191 51.6198 3.87757C51.9269 4.41875 52.1529 5.01884 52.2977 5.67783Z" stroke="#120D0D" stroke-width="0.177515" mask="url(#path-6-outside-1_485_8435)"/>
<mask id="path-7-outside-2_485_8435" maskUnits="userSpaceOnUse" x="53.0851" y="3.70282" width="13" height="14" fill="black">
<rect fill="white" x="53.0851" y="3.70282" width="13" height="14"/>
<path d="M60.0185 17.4084C58.8092 17.4084 57.7612 17.144 56.8744 16.6153C55.9876 16.0865 55.2997 15.3469 54.8106 14.3962C54.3269 13.4456 54.0851 12.3347 54.0851 11.0636C54.0851 9.79251 54.3269 8.67898 54.8106 7.72299C55.2997 6.767 55.9876 6.02465 56.8744 5.49592C57.7612 4.96719 58.8092 4.70282 60.0185 4.70282C61.2277 4.70282 62.2757 4.96719 63.1625 5.49592C64.0493 6.02465 64.7345 6.767 65.2182 7.72299C65.7073 8.67898 65.9518 9.79251 65.9518 11.0636C65.9518 12.3347 65.7073 13.4456 65.2182 14.3962C64.7345 15.3469 64.0493 16.0865 63.1625 16.6153C62.2757 17.144 61.2277 17.4084 60.0185 17.4084ZM60.0346 15.0852C60.6903 15.0852 61.2385 14.9062 61.6792 14.5484C62.1199 14.1852 62.4477 13.6992 62.6627 13.0904C62.883 12.4816 62.9932 11.8033 62.9932 11.0556C62.9932 10.3026 62.883 9.62161 62.6627 9.01277C62.4477 8.39859 62.1199 7.90992 61.6792 7.54675C61.2385 7.18358 60.6903 7.00199 60.0346 7.00199C59.3628 7.00199 58.8038 7.18358 58.3578 7.54675C57.9171 7.90992 57.5865 8.39859 57.3662 9.01277C57.1512 9.62161 57.0437 10.3026 57.0437 11.0556C57.0437 11.8033 57.1512 12.4816 57.3662 13.0904C57.5865 13.6992 57.9171 14.1852 58.3578 14.5484C58.8038 14.9062 59.3628 15.0852 60.0346 15.0852Z"/>
</mask>
<path d="M60.0185 17.4084C58.8092 17.4084 57.7612 17.144 56.8744 16.6153C55.9876 16.0865 55.2997 15.3469 54.8106 14.3962C54.3269 13.4456 54.0851 12.3347 54.0851 11.0636C54.0851 9.79251 54.3269 8.67898 54.8106 7.72299C55.2997 6.767 55.9876 6.02465 56.8744 5.49592C57.7612 4.96719 58.8092 4.70282 60.0185 4.70282C61.2277 4.70282 62.2757 4.96719 63.1625 5.49592C64.0493 6.02465 64.7345 6.767 65.2182 7.72299C65.7073 8.67898 65.9518 9.79251 65.9518 11.0636C65.9518 12.3347 65.7073 13.4456 65.2182 14.3962C64.7345 15.3469 64.0493 16.0865 63.1625 16.6153C62.2757 17.144 61.2277 17.4084 60.0185 17.4084ZM60.0346 15.0852C60.6903 15.0852 61.2385 14.9062 61.6792 14.5484C62.1199 14.1852 62.4477 13.6992 62.6627 13.0904C62.883 12.4816 62.9932 11.8033 62.9932 11.0556C62.9932 10.3026 62.883 9.62161 62.6627 9.01277C62.4477 8.39859 62.1199 7.90992 61.6792 7.54675C61.2385 7.18358 60.6903 7.00199 60.0346 7.00199C59.3628 7.00199 58.8038 7.18358 58.3578 7.54675C57.9171 7.90992 57.5865 8.39859 57.3662 9.01277C57.1512 9.62161 57.0437 10.3026 57.0437 11.0556C57.0437 11.8033 57.1512 12.4816 57.3662 13.0904C57.5865 13.6992 57.9171 14.1852 58.3578 14.5484C58.8038 14.9062 59.3628 15.0852 60.0346 15.0852Z" fill="#120D0D"/>
<path d="M60.0185 17.4084C58.8092 17.4084 57.7612 17.144 56.8744 16.6153C55.9876 16.0865 55.2997 15.3469 54.8106 14.3962C54.3269 13.4456 54.0851 12.3347 54.0851 11.0636C54.0851 9.79251 54.3269 8.67898 54.8106 7.72299C55.2997 6.767 55.9876 6.02465 56.8744 5.49592C57.7612 4.96719 58.8092 4.70282 60.0185 4.70282C61.2277 4.70282 62.2757 4.96719 63.1625 5.49592C64.0493 6.02465 64.7345 6.767 65.2182 7.72299C65.7073 8.67898 65.9518 9.79251 65.9518 11.0636C65.9518 12.3347 65.7073 13.4456 65.2182 14.3962C64.7345 15.3469 64.0493 16.0865 63.1625 16.6153C62.2757 17.144 61.2277 17.4084 60.0185 17.4084ZM60.0346 15.0852C60.6903 15.0852 61.2385 14.9062 61.6792 14.5484C62.1199 14.1852 62.4477 13.6992 62.6627 13.0904C62.883 12.4816 62.9932 11.8033 62.9932 11.0556C62.9932 10.3026 62.883 9.62161 62.6627 9.01277C62.4477 8.39859 62.1199 7.90992 61.6792 7.54675C61.2385 7.18358 60.6903 7.00199 60.0346 7.00199C59.3628 7.00199 58.8038 7.18358 58.3578 7.54675C57.9171 7.90992 57.5865 8.39859 57.3662 9.01277C57.1512 9.62161 57.0437 10.3026 57.0437 11.0556C57.0437 11.8033 57.1512 12.4816 57.3662 13.0904C57.5865 13.6992 57.9171 14.1852 58.3578 14.5484C58.8038 14.9062 59.3628 15.0852 60.0346 15.0852Z" stroke="#120D0D" stroke-width="0.177515" mask="url(#path-7-outside-2_485_8435)"/>
<mask id="path-8-outside-3_485_8435" maskUnits="userSpaceOnUse" x="66.7271" y="3.70282" width="13" height="14" fill="black">
<rect fill="white" x="66.7271" y="3.70282" width="13" height="14"/>
<path d="M73.6604 17.4084C72.4512 17.4084 71.4032 17.144 70.5164 16.6153C69.6296 16.0865 68.9417 15.3469 68.4526 14.3962C67.9689 13.4456 67.7271 12.3347 67.7271 11.0636C67.7271 9.79251 67.9689 8.67898 68.4526 7.72299C68.9417 6.767 69.6296 6.02465 70.5164 5.49592C71.4032 4.96719 72.4512 4.70282 73.6604 4.70282C74.8697 4.70282 75.9177 4.96719 76.8045 5.49592C77.6912 6.02465 78.3765 6.767 78.8602 7.72299C79.3493 8.67898 79.5938 9.79251 79.5938 11.0636C79.5938 12.3347 79.3493 13.4456 78.8602 14.3962C78.3765 15.3469 77.6912 16.0865 76.8045 16.6153C75.9177 17.144 74.8697 17.4084 73.6604 17.4084ZM73.6766 15.0852C74.3322 15.0852 74.8804 14.9062 75.3211 14.5484C75.7618 14.1852 76.0897 13.6992 76.3046 13.0904C76.525 12.4816 76.6352 11.8033 76.6352 11.0556C76.6352 10.3026 76.525 9.62161 76.3046 9.01277C76.0897 8.39859 75.7618 7.90992 75.3211 7.54675C74.8804 7.18358 74.3322 7.00199 73.6766 7.00199C73.0047 7.00199 72.4458 7.18358 71.9997 7.54675C71.559 7.90992 71.2285 8.39859 71.0081 9.01277C70.7932 9.62161 70.6857 10.3026 70.6857 11.0556C70.6857 11.8033 70.7932 12.4816 71.0081 13.0904C71.2285 13.6992 71.559 14.1852 71.9997 14.5484C72.4458 14.9062 73.0047 15.0852 73.6766 15.0852Z"/>
</mask>
<path d="M73.6604 17.4084C72.4512 17.4084 71.4032 17.144 70.5164 16.6153C69.6296 16.0865 68.9417 15.3469 68.4526 14.3962C67.9689 13.4456 67.7271 12.3347 67.7271 11.0636C67.7271 9.79251 67.9689 8.67898 68.4526 7.72299C68.9417 6.767 69.6296 6.02465 70.5164 5.49592C71.4032 4.96719 72.4512 4.70282 73.6604 4.70282C74.8697 4.70282 75.9177 4.96719 76.8045 5.49592C77.6912 6.02465 78.3765 6.767 78.8602 7.72299C79.3493 8.67898 79.5938 9.79251 79.5938 11.0636C79.5938 12.3347 79.3493 13.4456 78.8602 14.3962C78.3765 15.3469 77.6912 16.0865 76.8045 16.6153C75.9177 17.144 74.8697 17.4084 73.6604 17.4084ZM73.6766 15.0852C74.3322 15.0852 74.8804 14.9062 75.3211 14.5484C75.7618 14.1852 76.0897 13.6992 76.3046 13.0904C76.525 12.4816 76.6352 11.8033 76.6352 11.0556C76.6352 10.3026 76.525 9.62161 76.3046 9.01277C76.0897 8.39859 75.7618 7.90992 75.3211 7.54675C74.8804 7.18358 74.3322 7.00199 73.6766 7.00199C73.0047 7.00199 72.4458 7.18358 71.9997 7.54675C71.559 7.90992 71.2285 8.39859 71.0081 9.01277C70.7932 9.62161 70.6857 10.3026 70.6857 11.0556C70.6857 11.8033 70.7932 12.4816 71.0081 13.0904C71.2285 13.6992 71.559 14.1852 71.9997 14.5484C72.4458 14.9062 73.0047 15.0852 73.6766 15.0852Z" fill="#120D0D"/>
<path d="M73.6604 17.4084C72.4512 17.4084 71.4032 17.144 70.5164 16.6153C69.6296 16.0865 68.9417 15.3469 68.4526 14.3962C67.9689 13.4456 67.7271 12.3347 67.7271 11.0636C67.7271 9.79251 67.9689 8.67898 68.4526 7.72299C68.9417 6.767 69.6296 6.02465 70.5164 5.49592C71.4032 4.96719 72.4512 4.70282 73.6604 4.70282C74.8697 4.70282 75.9177 4.96719 76.8045 5.49592C77.6912 6.02465 78.3765 6.767 78.8602 7.72299C79.3493 8.67898 79.5938 9.79251 79.5938 11.0636C79.5938 12.3347 79.3493 13.4456 78.8602 14.3962C78.3765 15.3469 77.6912 16.0865 76.8045 16.6153C75.9177 17.144 74.8697 17.4084 73.6604 17.4084ZM73.6766 15.0852C74.3322 15.0852 74.8804 14.9062 75.3211 14.5484C75.7618 14.1852 76.0897 13.6992 76.3046 13.0904C76.525 12.4816 76.6352 11.8033 76.6352 11.0556C76.6352 10.3026 76.525 9.62161 76.3046 9.01277C76.0897 8.39859 75.7618 7.90992 75.3211 7.54675C74.8804 7.18358 74.3322 7.00199 73.6766 7.00199C73.0047 7.00199 72.4458 7.18358 71.9997 7.54675C71.559 7.90992 71.2285 8.39859 71.0081 9.01277C70.7932 9.62161 70.6857 10.3026 70.6857 11.0556C70.6857 11.8033 70.7932 12.4816 71.0081 13.0904C71.2285 13.6992 71.559 14.1852 71.9997 14.5484C72.4458 14.9062 73.0047 15.0852 73.6766 15.0852Z" stroke="#120D0D" stroke-width="0.177515" mask="url(#path-8-outside-3_485_8435)"/>
<mask id="path-9-outside-4_485_8435" maskUnits="userSpaceOnUse" x="80.3689" y="0.00170898" width="5" height="18" fill="black">
<rect fill="white" x="80.3689" y="0.00170898" width="5" height="18"/>
<path d="M83.9914 1.00171C84.1548 1.00171 84.2872 1.13417 84.2872 1.29757V17.1125C84.2872 17.2759 84.1548 17.4084 83.9914 17.4084H81.6648C81.5014 17.4084 81.3689 17.2759 81.3689 17.1125V1.29757C81.3689 1.13417 81.5014 1.00171 81.6648 1.00171H83.9914Z"/>
</mask>
<path d="M83.9914 1.00171C84.1548 1.00171 84.2872 1.13417 84.2872 1.29757V17.1125C84.2872 17.2759 84.1548 17.4084 83.9914 17.4084H81.6648C81.5014 17.4084 81.3689 17.2759 81.3689 17.1125V1.29757C81.3689 1.13417 81.5014 1.00171 81.6648 1.00171H83.9914Z" fill="#120D0D"/>
<path d="M83.9914 1.00171C84.1548 1.00171 84.2872 1.13417 84.2872 1.29757V17.1125C84.2872 17.2759 84.1548 17.4084 83.9914 17.4084H81.6648C81.5014 17.4084 81.3689 17.2759 81.3689 17.1125V1.29757C81.3689 1.13417 81.5014 1.00171 81.6648 1.00171H83.9914Z" stroke="#120D0D" stroke-width="0.177515" mask="url(#path-9-outside-4_485_8435)"/>
<mask id="path-10-outside-5_485_8435" maskUnits="userSpaceOnUse" x="86.0624" y="4.10333" width="18" height="14" fill="black">
<rect fill="white" x="86.0624" y="4.10333" width="18" height="14"/>
<path d="M89.7846 17.4083C89.6524 17.4083 89.5362 17.3206 89.5001 17.1934L86.1695 5.48011C86.1158 5.29119 86.2577 5.10333 86.4541 5.10333H88.8065C88.9421 5.10333 89.0604 5.19551 89.0934 5.32701L91.2 13.7004C91.2081 13.7327 91.2371 13.7553 91.2704 13.7553C91.3035 13.7553 91.3324 13.7329 91.3407 13.7008L93.4946 5.3255C93.5282 5.19474 93.6461 5.10333 93.7811 5.10333H96.2651C96.4 5.10333 96.5178 5.19454 96.5515 5.32512L98.7041 13.6489C98.713 13.6833 98.744 13.7072 98.7794 13.7072C98.8151 13.7072 98.8462 13.6829 98.8548 13.6483L100.929 5.32764C100.961 5.19583 101.08 5.10333 101.216 5.10333H103.575C103.772 5.10333 103.914 5.29132 103.86 5.48028L100.522 17.1936C100.486 17.3207 100.369 17.4083 100.237 17.4083H97.6459C97.5131 17.4083 97.3966 17.3199 97.3609 17.192L95.1223 9.17437C95.1088 9.12617 95.0649 9.09284 95.0149 9.09284C94.9648 9.09284 94.9209 9.12617 94.9075 9.17437L92.6689 17.192C92.6332 17.3199 92.5167 17.4083 92.3839 17.4083H89.7846Z"/>
</mask>
<path d="M89.7846 17.4083C89.6524 17.4083 89.5362 17.3206 89.5001 17.1934L86.1695 5.48011C86.1158 5.29119 86.2577 5.10333 86.4541 5.10333H88.8065C88.9421 5.10333 89.0604 5.19551 89.0934 5.32701L91.2 13.7004C91.2081 13.7327 91.2371 13.7553 91.2704 13.7553C91.3035 13.7553 91.3324 13.7329 91.3407 13.7008L93.4946 5.3255C93.5282 5.19474 93.6461 5.10333 93.7811 5.10333H96.2651C96.4 5.10333 96.5178 5.19454 96.5515 5.32512L98.7041 13.6489C98.713 13.6833 98.744 13.7072 98.7794 13.7072C98.8151 13.7072 98.8462 13.6829 98.8548 13.6483L100.929 5.32764C100.961 5.19583 101.08 5.10333 101.216 5.10333H103.575C103.772 5.10333 103.914 5.29132 103.86 5.48028L100.522 17.1936C100.486 17.3207 100.369 17.4083 100.237 17.4083H97.6459C97.5131 17.4083 97.3966 17.3199 97.3609 17.192L95.1223 9.17437C95.1088 9.12617 95.0649 9.09284 95.0149 9.09284C94.9648 9.09284 94.9209 9.12617 94.9075 9.17437L92.6689 17.192C92.6332 17.3199 92.5167 17.4083 92.3839 17.4083H89.7846Z" fill="#120D0D"/>
<path d="M89.7846 17.4083C89.6524 17.4083 89.5362 17.3206 89.5001 17.1934L86.1695 5.48011C86.1158 5.29119 86.2577 5.10333 86.4541 5.10333H88.8065C88.9421 5.10333 89.0604 5.19551 89.0934 5.32701L91.2 13.7004C91.2081 13.7327 91.2371 13.7553 91.2704 13.7553C91.3035 13.7553 91.3324 13.7329 91.3407 13.7008L93.4946 5.3255C93.5282 5.19474 93.6461 5.10333 93.7811 5.10333H96.2651C96.4 5.10333 96.5178 5.19454 96.5515 5.32512L98.7041 13.6489C98.713 13.6833 98.744 13.7072 98.7794 13.7072C98.8151 13.7072 98.8462 13.6829 98.8548 13.6483L100.929 5.32764C100.961 5.19583 101.08 5.10333 101.216 5.10333H103.575C103.772 5.10333 103.914 5.29132 103.86 5.48028L100.522 17.1936C100.486 17.3207 100.369 17.4083 100.237 17.4083H97.6459C97.5131 17.4083 97.3966 17.3199 97.3609 17.192L95.1223 9.17437C95.1088 9.12617 95.0649 9.09284 95.0149 9.09284C94.9648 9.09284 94.9209 9.12617 94.9075 9.17437L92.6689 17.192C92.6332 17.3199 92.5167 17.4083 92.3839 17.4083H89.7846Z" stroke="#120D0D" stroke-width="0.177515" mask="url(#path-10-outside-5_485_8435)"/>
<mask id="path-11-outside-6_485_8435" maskUnits="userSpaceOnUse" x="104.742" y="3.69476" width="13" height="14" fill="black">
<rect fill="white" x="104.742" y="3.69476" width="13" height="14"/>
<path d="M109.886 17.4083C109.101 17.4083 108.395 17.2695 107.766 16.9917C107.142 16.7087 106.648 16.2921 106.283 15.742C105.922 15.1919 105.742 14.5137 105.742 13.7072C105.742 13.0129 105.871 12.4388 106.129 11.9848C106.387 11.5309 106.739 11.1677 107.185 10.8953C107.632 10.6229 108.134 10.4173 108.693 10.2785C109.257 10.1343 109.84 10.0301 110.442 9.96604C111.168 9.89127 111.756 9.82451 112.208 9.76577C112.659 9.70168 112.987 9.60554 113.191 9.47737C113.401 9.34385 113.506 9.13823 113.506 8.86052V8.81245C113.506 8.20895 113.326 7.74164 112.966 7.41051C112.606 7.07939 112.087 6.91383 111.41 6.91383C110.695 6.91383 110.128 7.06871 109.709 7.37847C109.371 7.63165 109.122 7.9223 108.963 8.25042C108.902 8.37801 108.769 8.46168 108.629 8.44187L106.483 8.13902C106.305 8.1139 106.189 7.9367 106.25 7.76756C106.469 7.16149 106.788 6.64459 107.21 6.21686C107.704 5.7095 108.309 5.33031 109.024 5.07929C109.738 4.82294 110.528 4.69476 111.394 4.69476C111.99 4.69476 112.584 4.76419 113.175 4.90305C113.766 5.04191 114.307 5.27156 114.796 5.592C115.285 5.9071 115.677 6.33703 115.973 6.88178C116.274 7.42654 116.424 8.10748 116.424 8.9246V14.5297C116.424 14.7951 116.484 15.0572 116.598 15.2966L117.301 16.763C117.395 16.9603 117.25 17.1884 117.032 17.1867L113.912 17.1623C113.75 17.161 113.619 17.0289 113.619 16.8664V15.5298C113.619 15.4966 113.592 15.4696 113.559 15.4696C113.536 15.4696 113.515 15.4822 113.505 15.502C113.329 15.8317 113.084 16.1413 112.772 16.431C112.455 16.7247 112.055 16.9624 111.571 17.144C111.093 17.3202 110.531 17.4083 109.886 17.4083ZM110.644 15.2774C111.23 15.2774 111.738 15.1626 112.168 14.9329C112.598 14.6979 112.928 14.3882 113.159 14.0036C113.396 13.6191 113.514 13.1998 113.514 12.7459V11.8108C113.514 11.6049 113.244 11.4467 113.046 11.5042C112.831 11.5683 112.589 11.6243 112.321 11.6724C112.052 11.7205 111.786 11.7632 111.523 11.8006C111.259 11.838 111.031 11.87 110.837 11.8967C110.402 11.9555 110.012 12.0516 109.668 12.1851C109.324 12.3186 109.053 12.5055 108.854 12.7459C108.655 12.9809 108.556 13.2853 108.556 13.6591C108.556 14.1932 108.752 14.5964 109.144 14.8688C109.537 15.1412 110.037 15.2774 110.644 15.2774Z"/>
</mask>
<path d="M109.886 17.4083C109.101 17.4083 108.395 17.2695 107.766 16.9917C107.142 16.7087 106.648 16.2921 106.283 15.742C105.922 15.1919 105.742 14.5137 105.742 13.7072C105.742 13.0129 105.871 12.4388 106.129 11.9848C106.387 11.5309 106.739 11.1677 107.185 10.8953C107.632 10.6229 108.134 10.4173 108.693 10.2785C109.257 10.1343 109.84 10.0301 110.442 9.96604C111.168 9.89127 111.756 9.82451 112.208 9.76577C112.659 9.70168 112.987 9.60554 113.191 9.47737C113.401 9.34385 113.506 9.13823 113.506 8.86052V8.81245C113.506 8.20895 113.326 7.74164 112.966 7.41051C112.606 7.07939 112.087 6.91383 111.41 6.91383C110.695 6.91383 110.128 7.06871 109.709 7.37847C109.371 7.63165 109.122 7.9223 108.963 8.25042C108.902 8.37801 108.769 8.46168 108.629 8.44187L106.483 8.13902C106.305 8.1139 106.189 7.9367 106.25 7.76756C106.469 7.16149 106.788 6.64459 107.21 6.21686C107.704 5.7095 108.309 5.33031 109.024 5.07929C109.738 4.82294 110.528 4.69476 111.394 4.69476C111.99 4.69476 112.584 4.76419 113.175 4.90305C113.766 5.04191 114.307 5.27156 114.796 5.592C115.285 5.9071 115.677 6.33703 115.973 6.88178C116.274 7.42654 116.424 8.10748 116.424 8.9246V14.5297C116.424 14.7951 116.484 15.0572 116.598 15.2966L117.301 16.763C117.395 16.9603 117.25 17.1884 117.032 17.1867L113.912 17.1623C113.75 17.161 113.619 17.0289 113.619 16.8664V15.5298C113.619 15.4966 113.592 15.4696 113.559 15.4696C113.536 15.4696 113.515 15.4822 113.505 15.502C113.329 15.8317 113.084 16.1413 112.772 16.431C112.455 16.7247 112.055 16.9624 111.571 17.144C111.093 17.3202 110.531 17.4083 109.886 17.4083ZM110.644 15.2774C111.23 15.2774 111.738 15.1626 112.168 14.9329C112.598 14.6979 112.928 14.3882 113.159 14.0036C113.396 13.6191 113.514 13.1998 113.514 12.7459V11.8108C113.514 11.6049 113.244 11.4467 113.046 11.5042C112.831 11.5683 112.589 11.6243 112.321 11.6724C112.052 11.7205 111.786 11.7632 111.523 11.8006C111.259 11.838 111.031 11.87 110.837 11.8967C110.402 11.9555 110.012 12.0516 109.668 12.1851C109.324 12.3186 109.053 12.5055 108.854 12.7459C108.655 12.9809 108.556 13.2853 108.556 13.6591C108.556 14.1932 108.752 14.5964 109.144 14.8688C109.537 15.1412 110.037 15.2774 110.644 15.2774Z" fill="#120D0D"/>
<path d="M109.886 17.4083C109.101 17.4083 108.395 17.2695 107.766 16.9917C107.142 16.7087 106.648 16.2921 106.283 15.742C105.922 15.1919 105.742 14.5137 105.742 13.7072C105.742 13.0129 105.871 12.4388 106.129 11.9848C106.387 11.5309 106.739 11.1677 107.185 10.8953C107.632 10.6229 108.134 10.4173 108.693 10.2785C109.257 10.1343 109.84 10.0301 110.442 9.96604C111.168 9.89127 111.756 9.82451 112.208 9.76577C112.659 9.70168 112.987 9.60554 113.191 9.47737C113.401 9.34385 113.506 9.13823 113.506 8.86052V8.81245C113.506 8.20895 113.326 7.74164 112.966 7.41051C112.606 7.07939 112.087 6.91383 111.41 6.91383C110.695 6.91383 110.128 7.06871 109.709 7.37847C109.371 7.63165 109.122 7.9223 108.963 8.25042C108.902 8.37801 108.769 8.46168 108.629 8.44187L106.483 8.13902C106.305 8.1139 106.189 7.9367 106.25 7.76756C106.469 7.16149 106.788 6.64459 107.21 6.21686C107.704 5.7095 108.309 5.33031 109.024 5.07929C109.738 4.82294 110.528 4.69476 111.394 4.69476C111.99 4.69476 112.584 4.76419 113.175 4.90305C113.766 5.04191 114.307 5.27156 114.796 5.592C115.285 5.9071 115.677 6.33703 115.973 6.88178C116.274 7.42654 116.424 8.10748 116.424 8.9246V14.5297C116.424 14.7951 116.484 15.0572 116.598 15.2966L117.301 16.763C117.395 16.9603 117.25 17.1884 117.032 17.1867L113.912 17.1623C113.75 17.161 113.619 17.0289 113.619 16.8664V15.5298C113.619 15.4966 113.592 15.4696 113.559 15.4696C113.536 15.4696 113.515 15.4822 113.505 15.502C113.329 15.8317 113.084 16.1413 112.772 16.431C112.455 16.7247 112.055 16.9624 111.571 17.144C111.093 17.3202 110.531 17.4083 109.886 17.4083ZM110.644 15.2774C111.23 15.2774 111.738 15.1626 112.168 14.9329C112.598 14.6979 112.928 14.3882 113.159 14.0036C113.396 13.6191 113.514 13.1998 113.514 12.7459V11.8108C113.514 11.6049 113.244 11.4467 113.046 11.5042C112.831 11.5683 112.589 11.6243 112.321 11.6724C112.052 11.7205 111.786 11.7632 111.523 11.8006C111.259 11.838 111.031 11.87 110.837 11.8967C110.402 11.9555 110.012 12.0516 109.668 12.1851C109.324 12.3186 109.053 12.5055 108.854 12.7459C108.655 12.9809 108.556 13.2853 108.556 13.6591C108.556 14.1932 108.752 14.5964 109.144 14.8688C109.537 15.1412 110.037 15.2774 110.644 15.2774Z" stroke="#120D0D" stroke-width="0.177515" mask="url(#path-11-outside-6_485_8435)"/>
<mask id="path-12-outside-7_485_8435" maskUnits="userSpaceOnUse" x="118.281" y="0.984436" width="7" height="17" fill="black">
<rect fill="white" x="118.281" y="0.984436" width="7" height="17"/>
<path d="M124.343 4.93518C124.508 4.93371 124.642 5.06659 124.642 5.23103V6.87975C124.642 7.04314 124.509 7.1756 124.346 7.1756H119.577C119.413 7.1756 119.281 7.04314 119.281 6.87975V5.27379C119.281 5.11143 119.412 4.9794 119.574 4.97794L124.343 4.93518ZM119.281 2.28029C119.281 2.1169 119.413 1.98444 119.577 1.98444H121.903C122.067 1.98444 122.199 2.1169 122.199 2.28029V13.5364C122.199 13.9263 122.258 14.2253 122.377 14.4336C122.5 14.6366 122.661 14.7754 122.86 14.8502C123.059 14.925 123.279 14.9624 123.521 14.9624C123.704 14.9624 123.871 14.949 124.021 14.9223C124.039 14.9193 124.056 14.9163 124.073 14.9133C124.239 14.8839 124.406 14.9879 124.441 15.1528L124.812 16.8601C124.844 17.0068 124.76 17.1539 124.615 17.1929C124.497 17.2249 124.358 17.2584 124.198 17.2936C123.914 17.3577 123.564 17.3951 123.15 17.4057C122.419 17.4271 121.761 17.3176 121.175 17.0773C120.589 16.8316 120.125 16.4524 119.781 15.9397C119.442 15.427 119.275 14.7861 119.281 14.0171V2.28029Z"/>
</mask>
<path d="M124.343 4.93518C124.508 4.93371 124.642 5.06659 124.642 5.23103V6.87975C124.642 7.04314 124.509 7.1756 124.346 7.1756H119.577C119.413 7.1756 119.281 7.04314 119.281 6.87975V5.27379C119.281 5.11143 119.412 4.9794 119.574 4.97794L124.343 4.93518ZM119.281 2.28029C119.281 2.1169 119.413 1.98444 119.577 1.98444H121.903C122.067 1.98444 122.199 2.1169 122.199 2.28029V13.5364C122.199 13.9263 122.258 14.2253 122.377 14.4336C122.5 14.6366 122.661 14.7754 122.86 14.8502C123.059 14.925 123.279 14.9624 123.521 14.9624C123.704 14.9624 123.871 14.949 124.021 14.9223C124.039 14.9193 124.056 14.9163 124.073 14.9133C124.239 14.8839 124.406 14.9879 124.441 15.1528L124.812 16.8601C124.844 17.0068 124.76 17.1539 124.615 17.1929C124.497 17.2249 124.358 17.2584 124.198 17.2936C123.914 17.3577 123.564 17.3951 123.15 17.4057C122.419 17.4271 121.761 17.3176 121.175 17.0773C120.589 16.8316 120.125 16.4524 119.781 15.9397C119.442 15.427 119.275 14.7861 119.281 14.0171V2.28029Z" fill="#120D0D"/>
<path d="M124.343 4.93518C124.508 4.93371 124.642 5.06659 124.642 5.23103V6.87975C124.642 7.04314 124.509 7.1756 124.346 7.1756H119.577C119.413 7.1756 119.281 7.04314 119.281 6.87975V5.27379C119.281 5.11143 119.412 4.9794 119.574 4.97794L124.343 4.93518ZM119.281 2.28029C119.281 2.1169 119.413 1.98444 119.577 1.98444H121.903C122.067 1.98444 122.199 2.1169 122.199 2.28029V13.5364C122.199 13.9263 122.258 14.2253 122.377 14.4336C122.5 14.6366 122.661 14.7754 122.86 14.8502C123.059 14.925 123.279 14.9624 123.521 14.9624C123.704 14.9624 123.871 14.949 124.021 14.9223C124.039 14.9193 124.056 14.9163 124.073 14.9133C124.239 14.8839 124.406 14.9879 124.441 15.1528L124.812 16.8601C124.844 17.0068 124.76 17.1539 124.615 17.1929C124.497 17.2249 124.358 17.2584 124.198 17.2936C123.914 17.3577 123.564 17.3951 123.15 17.4057C122.419 17.4271 121.761 17.3176 121.175 17.0773C120.589 16.8316 120.125 16.4524 119.781 15.9397C119.442 15.427 119.275 14.7861 119.281 14.0171V2.28029Z" stroke="#120D0D" stroke-width="0.177515" mask="url(#path-12-outside-7_485_8435)"/>
<mask id="path-13-outside-8_485_8435" maskUnits="userSpaceOnUse" x="125.643" y="3.70282" width="13" height="14" fill="black">
<rect fill="white" x="125.643" y="3.70282" width="13" height="14"/>
<path d="M132.657 17.4084C131.415 17.4084 130.343 17.152 129.44 16.6393C128.543 16.1213 127.852 15.3896 127.368 14.4443C126.885 13.4936 126.643 12.3747 126.643 11.0876C126.643 9.82189 126.885 8.71102 127.368 7.75503C127.857 6.79371 128.54 6.04601 129.416 5.51194C130.292 4.97252 131.321 4.70282 132.504 4.70282C133.267 4.70282 133.987 4.82566 134.664 5.07133C135.347 5.31166 135.949 5.68551 136.47 6.19288C136.997 6.70024 137.41 7.34647 137.711 8.13155C138.012 8.9113 138.163 9.84058 138.163 10.9194V11.5128C138.163 11.6762 138.03 11.8086 137.867 11.8086H128.309C128.146 11.8086 128.013 11.6762 128.013 11.5128V10.1498C128.013 9.98639 128.146 9.85393 128.309 9.85393H135.067C135.231 9.85393 135.366 9.71947 135.351 9.55561C135.312 9.12001 135.196 8.72544 135.003 8.37189C134.766 7.93395 134.436 7.58947 134.011 7.33846C133.592 7.08745 133.103 6.96194 132.544 6.96194C131.947 6.96194 131.423 7.10614 130.972 7.39454C130.52 7.67759 130.168 8.05144 129.916 8.51608C129.669 8.97539 129.542 9.48008 129.537 10.0302V11.7365C129.537 12.4522 129.669 13.0664 129.932 13.5791C130.195 14.0864 130.563 14.4763 131.036 14.7487C131.509 15.0157 132.063 15.1492 132.697 15.1492C133.122 15.1492 133.506 15.0905 133.85 14.973C134.194 14.8502 134.492 14.6713 134.745 14.4363C134.944 14.251 135.105 14.0308 135.227 13.7758C135.286 13.6533 135.412 13.5736 135.547 13.5887L137.709 13.8303C137.886 13.85 138.006 14.0208 137.952 14.1903C137.766 14.7726 137.468 15.2899 137.058 15.7421C136.58 16.2708 135.967 16.682 135.22 16.9758C134.473 17.2642 133.619 17.4084 132.657 17.4084Z"/>
</mask>
<path d="M132.657 17.4084C131.415 17.4084 130.343 17.152 129.44 16.6393C128.543 16.1213 127.852 15.3896 127.368 14.4443C126.885 13.4936 126.643 12.3747 126.643 11.0876C126.643 9.82189 126.885 8.71102 127.368 7.75503C127.857 6.79371 128.54 6.04601 129.416 5.51194C130.292 4.97252 131.321 4.70282 132.504 4.70282C133.267 4.70282 133.987 4.82566 134.664 5.07133C135.347 5.31166 135.949 5.68551 136.47 6.19288C136.997 6.70024 137.41 7.34647 137.711 8.13155C138.012 8.9113 138.163 9.84058 138.163 10.9194V11.5128C138.163 11.6762 138.03 11.8086 137.867 11.8086H128.309C128.146 11.8086 128.013 11.6762 128.013 11.5128V10.1498C128.013 9.98639 128.146 9.85393 128.309 9.85393H135.067C135.231 9.85393 135.366 9.71947 135.351 9.55561C135.312 9.12001 135.196 8.72544 135.003 8.37189C134.766 7.93395 134.436 7.58947 134.011 7.33846C133.592 7.08745 133.103 6.96194 132.544 6.96194C131.947 6.96194 131.423 7.10614 130.972 7.39454C130.52 7.67759 130.168 8.05144 129.916 8.51608C129.669 8.97539 129.542 9.48008 129.537 10.0302V11.7365C129.537 12.4522 129.669 13.0664 129.932 13.5791C130.195 14.0864 130.563 14.4763 131.036 14.7487C131.509 15.0157 132.063 15.1492 132.697 15.1492C133.122 15.1492 133.506 15.0905 133.85 14.973C134.194 14.8502 134.492 14.6713 134.745 14.4363C134.944 14.251 135.105 14.0308 135.227 13.7758C135.286 13.6533 135.412 13.5736 135.547 13.5887L137.709 13.8303C137.886 13.85 138.006 14.0208 137.952 14.1903C137.766 14.7726 137.468 15.2899 137.058 15.7421C136.58 16.2708 135.967 16.682 135.22 16.9758C134.473 17.2642 133.619 17.4084 132.657 17.4084Z" fill="#120D0D"/>
<path d="M132.657 17.4084C131.415 17.4084 130.343 17.152 129.44 16.6393C128.543 16.1213 127.852 15.3896 127.368 14.4443C126.885 13.4936 126.643 12.3747 126.643 11.0876C126.643 9.82189 126.885 8.71102 127.368 7.75503C127.857 6.79371 128.54 6.04601 129.416 5.51194C130.292 4.97252 131.321 4.70282 132.504 4.70282C133.267 4.70282 133.987 4.82566 134.664 5.07133C135.347 5.31166 135.949 5.68551 136.47 6.19288C136.997 6.70024 137.41 7.34647 137.711 8.13155C138.012 8.9113 138.163 9.84058 138.163 10.9194V11.5128C138.163 11.6762 138.03 11.8086 137.867 11.8086H128.309C128.146 11.8086 128.013 11.6762 128.013 11.5128V10.1498C128.013 9.98639 128.146 9.85393 128.309 9.85393H135.067C135.231 9.85393 135.366 9.71947 135.351 9.55561C135.312 9.12001 135.196 8.72544 135.003 8.37189C134.766 7.93395 134.436 7.58947 134.011 7.33846C133.592 7.08745 133.103 6.96194 132.544 6.96194C131.947 6.96194 131.423 7.10614 130.972 7.39454C130.52 7.67759 130.168 8.05144 129.916 8.51608C129.669 8.97539 129.542 9.48008 129.537 10.0302V11.7365C129.537 12.4522 129.669 13.0664 129.932 13.5791C130.195 14.0864 130.563 14.4763 131.036 14.7487C131.509 15.0157 132.063 15.1492 132.697 15.1492C133.122 15.1492 133.506 15.0905 133.85 14.973C134.194 14.8502 134.492 14.6713 134.745 14.4363C134.944 14.251 135.105 14.0308 135.227 13.7758C135.286 13.6533 135.412 13.5736 135.547 13.5887L137.709 13.8303C137.886 13.85 138.006 14.0208 137.952 14.1903C137.766 14.7726 137.468 15.2899 137.058 15.7421C136.58 16.2708 135.967 16.682 135.22 16.9758C134.473 17.2642 133.619 17.4084 132.657 17.4084Z" stroke="#120D0D" stroke-width="0.177515" mask="url(#path-13-outside-8_485_8435)"/>
<mask id="path-14-outside-9_485_8435" maskUnits="userSpaceOnUse" x="138.938" y="4.10333" width="9" height="14" fill="black">
<rect fill="white" x="138.938" y="4.10333" width="9" height="14"/>
<path d="M140.234 17.4083C140.07 17.4083 139.938 17.2759 139.938 17.1125V7.76605C139.938 6.29547 141.13 5.10333 142.601 5.10333H142.768H144.062H145.638H146.489H146.704C146.868 5.10333 147 5.23579 147 5.39919V7.37903C147 7.54242 146.868 7.67488 146.704 7.67488H146.262H144.062H143.152C142.989 7.67488 142.856 7.80734 142.856 7.97074V8.67306C142.856 8.67306 142.856 9.65095 142.856 10.1743V17.1125C142.856 17.2759 142.724 17.4083 142.56 17.4083H140.234Z"/>
</mask>
<path d="M140.234 17.4083C140.07 17.4083 139.938 17.2759 139.938 17.1125V7.76605C139.938 6.29547 141.13 5.10333 142.601 5.10333H142.768H144.062H145.638H146.489H146.704C146.868 5.10333 147 5.23579 147 5.39919V7.37903C147 7.54242 146.868 7.67488 146.704 7.67488H146.262H144.062H143.152C142.989 7.67488 142.856 7.80734 142.856 7.97074V8.67306C142.856 8.67306 142.856 9.65095 142.856 10.1743V17.1125C142.856 17.2759 142.724 17.4083 142.56 17.4083H140.234Z" fill="#120D0D"/>
<path d="M140.234 17.4083C140.07 17.4083 139.938 17.2759 139.938 17.1125V7.76605C139.938 6.29547 141.13 5.10333 142.601 5.10333H142.768H144.062H145.638H146.489H146.704C146.868 5.10333 147 5.23579 147 5.39919V7.37903C147 7.54242 146.868 7.67488 146.704 7.67488H146.262H144.062H143.152C142.989 7.67488 142.856 7.80734 142.856 7.97074V8.67306C142.856 8.67306 142.856 9.65095 142.856 10.1743V17.1125C142.856 17.2759 142.724 17.4083 142.56 17.4083H140.234Z" stroke="#120D0D" stroke-width="0.177515" mask="url(#path-14-outside-9_485_8435)"/>
<rect x="-138.5" y="-18.5" width="1441" height="55" stroke="#BBC6D8" stroke-opacity="0.3"/>
</g>
</g>
<defs>
<filter id="filter0_f_485_8435" x="-239.441" y="-150.801" width="1643.11" height="623.61" filterUnits="userSpaceOnUse" color-interpolation-filters="sRGB">
<feFlood flood-opacity="0" result="BackgroundImageFix"/>
<feBlend mode="normal" in="SourceGraphic" in2="BackgroundImageFix" result="shape"/>
<feGaussianBlur stdDeviation="51.1563" result="effect1_foregroundBlur_485_8435"/>
</filter>
<filter id="filter1_f_485_8435" x="-44.9813" y="-9.09735" width="1402.78" height="323.043" filterUnits="userSpaceOnUse" color-interpolation-filters="sRGB">
<feFlood flood-opacity="0" result="BackgroundImageFix"/>
<feBlend mode="normal" in="SourceGraphic" in2="BackgroundImageFix" result="shape"/>
<feGaussianBlur stdDeviation="44.0513" result="effect1_foregroundBlur_485_8435"/>
</filter>
<filter id="filter2_b_485_8435" x="-163" y="-43" width="1490" height="104" filterUnits="userSpaceOnUse" color-interpolation-filters="sRGB">
<feFlood flood-opacity="0" result="BackgroundImageFix"/>
<feGaussianBlur in="BackgroundImageFix" stdDeviation="12"/>
<feComposite in2="SourceAlpha" operator="in" result="effect1_backgroundBlur_485_8435"/>
<feBlend mode="normal" in="SourceGraphic" in2="effect1_backgroundBlur_485_8435" result="shape"/>
</filter>
<radialGradient id="paint0_radial_485_8435" cx="0" cy="0" r="1" gradientUnits="userSpaceOnUse" gradientTransform="translate(470.005 122.089) rotate(1.95906) scale(437.251 1661.38)">
<stop stop-color="#3251F4" stop-opacity="0.96"/>
<stop offset="1" stop-color="#405CF3"/>
</radialGradient>
<linearGradient id="paint1_linear_485_8435" x1="656.41" y1="225.843" x2="656.41" y2="79.0053" gradientUnits="userSpaceOnUse">
<stop stop-color="#FEFEFE"/>
<stop offset="1" stop-color="#FEFEFE"/>
</linearGradient>
<clipPath id="clip0_485_8435">
<rect width="1440" height="2025" fill="white" transform="translate(-138 -18)"/>
</clipPath>
</defs>
</svg>
