<?xml version="1.0" standalone="no"?>
<!DOCTYPE svg PUBLIC "-//W3C//DTD SVG 20010904//EN"
 "http://www.w3.org/TR/2001/REC-SVG-20010904/DTD/svg10.dtd">
<svg version="1.0" xmlns="http://www.w3.org/2000/svg"
 width="508.000000pt" height="338.000000pt" viewBox="0 0 508.000000 338.000000"
 preserveAspectRatio="xMidYMid meet">

<g transform="translate(0.000000,338.000000) scale(0.100000,-0.100000)"
fill="#000000" stroke="none">
<path d="M3560 2590 c0 -5 -9 -10 -20 -10 -11 0 -20 -4 -20 -10 0 -5 18 -10
40 -10 43 0 47 4 26 26 -17 16 -26 18 -26 4z"/>
<path d="M3560 2540 l-45 -6 45 -5 45 -6 -42 -1 c-36 -2 -43 -5 -43 -22 0 -19
-22 -27 -55 -20 -5 1 -6 -2 -2 -7 5 -4 14 -8 20 -8 5 0 12 -6 15 -12 2 -7 -4
-13 -13 -13 -12 0 -15 -5 -10 -21 5 -16 4 -19 -5 -14 -9 6 -11 4 -5 -6 5 -7
12 -72 16 -144 17 -279 57 -826 74 -988 16 -157 32 -194 91 -222 43 -20 91
-15 133 14 52 38 56 63 37 254 -9 95 -30 348 -46 562 -16 215 -32 413 -35 440
-4 28 -7 68 -9 89 -1 22 -8 42 -14 44 -7 2 -12 8 -12 13 0 6 5 7 10 4 6 -3 10
0 10 8 0 8 -12 18 -26 21 -19 5 -25 12 -21 26 7 29 -21 34 -113 20z"/>
<path d="M3701 2514 c0 -11 3 -14 6 -6 3 7 2 16 -1 19 -3 4 -6 -2 -5 -13z"/>
<path d="M1339 2325 c-54 -29 -73 -84 -59 -171 16 -101 29 -253 60 -709 48
-707 58 -802 91 -891 32 -85 100 -126 178 -109 54 12 111 78 111 129 0 14 5
26 10 26 6 0 10 5 10 10 0 6 -4 10 -9 10 -12 0 -35 -59 -33 -84 1 -16 -1 -17
-8 -6 -5 8 -7 17 -4 21 2 4 0 10 -5 14 -6 3 -8 12 -4 20 7 19 -4 19 -23 1 -18
-18 -18 -24 1 -28 10 -2 7 -7 -10 -15 -14 -6 -23 -8 -20 -3 3 4 -2 10 -10 14
-10 4 -15 -1 -16 -17 l0 -22 -11 23 c-6 12 -17 22 -25 22 -8 0 -11 5 -8 10 3
6 1 10 -4 10 -6 0 -11 8 -11 18 0 11 -12 24 -26 31 -29 13 -29 26 1 156 31
131 55 280 74 450 20 182 20 186 -14 640 -19 243 -32 349 -50 392 -26 63 -122
93 -186 58z m169 -1759 c-7 -8 -15 -12 -17 -11 -5 6 10 25 20 25 5 0 4 -6 -3
-14z"/>
</g>
</svg>
