<svg width="16" height="16" viewBox="0 0 16 16" fill="none" xmlns="http://www.w3.org/2000/svg">
<path d="M15.3537 4.85373L13.485 6.72248C13.1075 11.0987 9.41684 14.5 4.99997 14.5C4.09247 14.5 3.34434 14.3562 2.77622 14.0725C2.31809 13.8431 2.1306 13.5975 2.08372 13.5275C2.04192 13.4648 2.01483 13.3935 2.00447 13.3189C1.99411 13.2442 2.00074 13.1682 2.02388 13.0965C2.04702 13.0248 2.08606 12.9593 2.13809 12.9048C2.19012 12.8503 2.25379 12.8083 2.32434 12.7819C2.34059 12.7756 3.83935 12.2 4.79122 11.1044C4.26333 10.6703 3.80252 10.1607 3.42372 9.59185C2.64872 8.44123 1.78122 6.44248 2.04872 3.4556C2.0572 3.36069 2.09262 3.27018 2.15082 3.19473C2.20901 3.11928 2.28755 3.06203 2.37719 3.02972C2.46684 2.99741 2.56384 2.99138 2.65679 3.01236C2.74974 3.03333 2.83476 3.08043 2.90184 3.1481C2.92372 3.16998 4.98184 5.21685 7.49809 5.8806V5.49998C7.49714 5.10085 7.57605 4.70556 7.73019 4.3374C7.88432 3.96923 8.11057 3.63563 8.39559 3.35623C8.67241 3.07981 9.00178 2.86163 9.36428 2.71457C9.72678 2.56751 10.1151 2.49454 10.5062 2.49998C11.0309 2.50515 11.5454 2.64601 11.9996 2.90886C12.4537 3.1717 12.8322 3.54759 13.0981 3.99998H15C15.0989 3.9999 15.1957 4.02918 15.278 4.08412C15.3603 4.13905 15.4244 4.21717 15.4623 4.30858C15.5002 4.39999 15.5101 4.50059 15.4907 4.59763C15.4714 4.69467 15.4237 4.7838 15.3537 4.85373Z" fill="white"/>
</svg>
