<svg width="110" height="50" viewBox="0 0 110 50" fill="none" xmlns="http://www.w3.org/2000/svg">
<path d="M109.476 12.9387C109.502 18.2342 106.704 22.5503 101.955 24.5348C96.9955 26.6061 91.9129 25.647 88.0985 21.9228C84.7666 18.6679 82.8465 18.8771 80.4028 22.9482C77.2095 28.2743 74.1344 33.6667 70.9873 39.0234C69.1956 42.0793 67.1009 44.8853 64.1387 46.9565C60.9916 49.1553 57.4801 49.8338 53.8248 48.8543C47.9824 47.2779 45.3077 40.5999 48.1981 34.983C49.5791 32.2995 51.2476 29.764 52.7107 27.1213C54.2201 24.3868 53.9942 22.0962 52.1871 20.6984C50.1284 19.1015 47.2226 19.4382 45.0869 21.6421C44.3579 22.3921 43.8035 23.3257 43.2644 24.2287C39.9685 29.7793 36.8317 35.4268 33.3869 40.8856C30.6095 45.2832 27.0414 48.8798 21.3377 49.1859C13.0311 49.6298 8.13338 42.1355 11.9376 34.7636C13.3956 31.9373 15.0898 29.2283 16.6813 26.4632C16.8455 26.1826 17.0612 25.9225 17.1946 25.6266C17.9442 23.943 19.3047 22.1217 17.7902 20.4228C16.3424 18.8005 14.6072 20.1831 13.0106 20.6984C9.68896 21.7799 6.44434 21.6523 3.72339 19.3158C0.992176 16.969 -0.00378871 13.9591 0.776559 10.3012C2.31672 3.06195 10.6747 -1.34589 17.4616 1.66918C20.4136 2.98031 22.2259 5.27098 23.0575 8.39829C25.2189 16.5558 32.5911 18.6118 38.839 12.8724C40.5486 11.3011 41.8115 9.39311 43.1977 7.57182C46.0521 3.82721 49.692 1.41922 54.4819 0.863144C59.7852 0.245844 63.6356 2.81197 64.9807 7.93913C65.0217 8.09728 65.032 8.2605 65.0679 8.41865C67.0753 17.8975 76.2854 17.3619 80.9264 12.8622C82.6412 11.1991 84.0068 9.26553 85.4032 7.34221C88.7094 2.77114 93.0783 0.250906 98.9001 0.949832C105.389 1.73549 109.445 6.3984 109.481 12.9438L109.476 12.9387Z" fill="black"/>
</svg>
