<svg width="53" height="40" viewBox="0 0 109 50" fill="none" xmlns="http://www.w3.org/2000/svg">
<path d="M108.976 12.9387C109.002 18.2342 106.204 22.5503 101.455 24.5348C96.4955 26.6061 91.4129 25.647 87.5985 21.9228C84.2666 18.6679 82.3465 18.8771 79.9028 22.9482C76.7095 28.2743 73.6344 33.6667 70.4873 39.0235C68.6956 42.0793 66.6009 44.8853 63.6387 46.9565C60.4916 49.1554 56.9801 49.8339 53.3248 48.8543C47.4824 47.2779 44.8077 40.5999 47.6981 34.983C49.0791 32.2995 50.7476 29.764 52.2107 27.1213C53.7201 24.3868 53.4942 22.0962 51.6871 20.6984C49.6284 19.1016 46.7226 19.4383 44.5869 21.6422C43.8579 22.3921 43.3035 23.3257 42.7644 24.2287C39.4685 29.7793 36.3317 35.4268 32.8869 40.8856C30.1095 45.2832 26.5414 48.8799 20.8377 49.186C12.5311 49.6298 7.63338 42.1355 11.4376 34.7636C12.8956 31.9373 14.5898 29.2283 16.1813 26.4632C16.3455 26.1826 16.5612 25.9225 16.6946 25.6266C17.4442 23.943 18.8047 22.1217 17.2902 20.4229C15.8424 18.8005 14.1072 20.1831 12.5106 20.6984C9.18896 21.7799 5.94434 21.6523 3.22339 19.3158C0.492176 16.969 -0.503789 13.9591 0.276559 10.3012C1.81672 3.06197 10.1747 -1.34588 16.9616 1.6692C19.9136 2.98032 21.7259 5.27099 22.5575 8.3983C24.7189 16.5558 32.0911 18.6118 38.339 12.8725C40.0486 11.3012 41.3115 9.39313 42.6977 7.57184C45.5521 3.82723 49.192 1.41924 53.9819 0.863159C59.2852 0.24586 63.1356 2.81199 64.4807 7.93914C64.5217 8.09729 64.532 8.26052 64.5679 8.41867C66.5753 17.8975 75.7854 17.3619 80.4264 12.8622C82.1412 11.1991 83.5068 9.26555 84.9032 7.34223C88.2094 2.77115 92.5783 0.250921 98.4001 0.949847C104.889 1.7355 108.945 6.39841 108.981 12.9438L108.976 12.9387Z" fill="black"/>
</svg>
